<svg width="20" height="20" viewBox="0 0 20 20" fill="none" xmlns="http://www.w3.org/2000/svg">
<circle cx="9.94053" cy="9.94053" r="7.19053" stroke="#34343A" stroke-width="1.5"/>
<path fill-rule="evenodd" clip-rule="evenodd" d="M9.44141 13.8052C9.44141 14.1366 9.71004 14.4052 10.0414 14.4052C10.3728 14.4052 10.6414 14.1366 10.6414 13.8052V10.4443H14.0005C14.3319 10.4443 14.6005 10.1756 14.6005 9.84425C14.6005 9.51288 14.3319 9.24425 14.0005 9.24425H10.6414V5.88711C10.6414 5.55574 10.3728 5.28711 10.0414 5.28711C9.71004 5.28711 9.44141 5.55574 9.44141 5.88711V9.24425H6.08242C5.75105 9.24425 5.48242 9.51288 5.48242 9.84425C5.48242 10.1756 5.75105 10.4443 6.08242 10.4443H9.44141V13.8052Z" fill="#34343A"/>
</svg>
